<svg width="160" height="34" viewBox="0 0 160 34" fill="none" xmlns="http://www.w3.org/2000/svg">
<path d="M140.668 16.588C140.668 14.6794 142.159 13.1319 144 13.1319C145.841 13.1319 147.334 14.6794 147.334 16.588C147.334 18.4965 145.841 20.0441 144 20.0441C142.159 20.0441 140.668 18.4965 140.668 16.588ZM138.865 16.588C138.865 19.5282 141.164 21.9116 144 21.9116C146.836 21.9116 149.135 19.5282 149.135 16.588C149.135 13.6477 146.836 11.2644 144 11.2644C141.164 11.2644 138.865 13.6477 138.865 16.588ZM148.139 11.0533C148.138 11.2994 148.209 11.5399 148.34 11.7446C148.472 11.9492 148.66 12.1087 148.879 12.203C149.098 12.2973 149.339 12.322 149.572 12.2741C149.805 12.2262 150.019 12.1078 150.187 11.9339C150.355 11.7599 150.469 11.5383 150.515 11.297C150.562 11.0557 150.538 10.8055 150.447 10.5782C150.357 10.3508 150.203 10.1564 150.006 10.0196C149.808 9.88285 149.576 9.80979 149.339 9.80969H149.339C149.02 9.80984 148.715 9.9409 148.49 10.1741C148.265 10.4072 148.139 10.7235 148.139 11.0533ZM139.96 25.0269C138.985 24.9808 138.455 24.8125 138.103 24.6702C137.636 24.4818 137.303 24.2574 136.953 23.8947C136.603 23.5321 136.386 23.1871 136.205 22.7031C136.068 22.3381 135.905 21.7886 135.861 20.7778C135.813 19.6849 135.803 19.3567 135.803 16.5881C135.803 13.8194 135.813 13.4921 135.861 12.3983C135.905 11.3875 136.069 10.8391 136.205 10.473C136.387 9.98901 136.603 9.64364 136.953 9.28053C137.303 8.91742 137.636 8.69265 138.103 8.50504C138.455 8.36272 138.985 8.19435 139.96 8.1484C141.014 8.09814 141.331 8.0881 144 8.0881C146.67 8.0881 146.987 8.09897 148.042 8.1484C149.017 8.19443 149.546 8.36405 149.899 8.50504C150.365 8.69265 150.699 8.91792 151.049 9.28053C151.399 9.64315 151.615 9.98901 151.797 10.473C151.934 10.838 152.097 11.3875 152.141 12.3983C152.189 13.4921 152.199 13.8194 152.199 16.5881C152.199 19.3567 152.189 19.684 152.141 20.7778C152.096 21.7886 151.933 22.338 151.797 22.7031C151.615 23.1871 151.399 23.5325 151.049 23.8947C150.699 24.257 150.365 24.4818 149.899 24.6702C149.547 24.8126 149.017 24.9809 148.042 25.0269C146.987 25.0771 146.671 25.0872 144 25.0872C141.33 25.0872 141.014 25.0771 139.96 25.0269ZM139.878 6.28324C138.813 6.33351 138.086 6.50851 137.45 6.76479C136.792 7.02946 136.235 7.38452 135.679 7.96062C135.122 8.53673 134.781 9.11507 134.525 9.79717C134.278 10.4562 134.109 11.21 134.061 12.3137C134.012 13.4191 134 13.7725 134 16.588C134 19.4035 134.012 19.7569 134.061 20.8623C134.109 21.9661 134.278 22.7197 134.525 23.3788C134.781 24.0605 135.122 24.6395 135.679 25.2153C136.235 25.7912 136.792 26.1457 137.45 26.4111C138.087 26.6674 138.813 26.8424 139.878 26.8927C140.944 26.943 141.285 26.9555 144 26.9555C146.716 26.9555 147.057 26.9438 148.123 26.8927C149.188 26.8424 149.915 26.6674 150.55 26.4111C151.208 26.1457 151.765 25.7914 152.322 25.2153C152.878 24.6392 153.219 24.0605 153.475 23.3788C153.723 22.7197 153.892 21.966 153.94 20.8623C153.988 19.756 154 19.4035 154 16.588C154 13.7725 153.988 13.4191 153.94 12.3137C153.891 11.2099 153.723 10.4558 153.475 9.79717C153.219 9.11548 152.878 8.53764 152.322 7.96062C151.766 7.38361 151.208 7.02946 150.551 6.76479C149.915 6.50851 149.188 6.33268 148.124 6.28324C147.058 6.23298 146.717 6.22046 144.001 6.22046C141.285 6.22046 140.944 6.23215 139.878 6.28324Z" fill="#121212" fill-opacity="0.6"/>
<path d="M87.8415 13.0025C87.8415 13.1839 87.8415 13.3654 87.8415 13.5209C87.8415 18.8861 83.8915 25.0807 76.6915 25.0807C74.4665 25.0807 72.4165 24.4068 70.6665 23.2663C70.9665 23.2923 71.2915 23.3182 71.5915 23.3182C73.4165 23.3182 75.1165 22.6702 76.4665 21.5816C74.7415 21.5557 73.2915 20.3634 72.8165 18.7565C73.0665 18.8083 73.2915 18.8342 73.5665 18.8342C73.9165 18.8342 74.2665 18.7824 74.5915 18.6787C72.7915 18.3159 71.4415 16.683 71.4415 14.7132C71.4415 14.6872 71.4415 14.6872 71.4415 14.6613C71.9665 14.9723 72.5665 15.1538 73.2165 15.1797C72.1665 14.454 71.4665 13.2099 71.4665 11.7843C71.4665 11.0327 71.6665 10.3329 71.9915 9.73675C73.9165 12.199 76.8165 13.806 80.0665 13.9874C79.9915 13.7023 79.9665 13.3654 79.9665 13.0544C79.9665 10.7994 81.7165 8.98511 83.8915 8.98511C85.0165 8.98511 86.0415 9.47756 86.7415 10.2551C87.6415 10.0737 88.4665 9.73675 89.2415 9.27021C88.9415 10.2292 88.3165 11.0068 87.5165 11.5251C88.3165 11.4215 89.0665 11.2141 89.7665 10.8772C89.2665 11.7066 88.6165 12.4323 87.8415 13.0025Z" fill="#121212" fill-opacity="0.6"/>
<path d="M17.0681 27.6468V17.558H20.3345L20.8235 13.6262H17.0681V11.1159C17.0681 9.9776 17.373 9.20178 18.9477 9.20178L20.9559 9.20081V5.6843C20.6084 5.63656 19.4164 5.52954 18.0296 5.52954C15.1342 5.52954 13.1519 7.36176 13.1519 10.7267V13.6263H9.87708V17.5581H13.1518V27.6469L17.0681 27.6468Z" fill="#121212" fill-opacity="0.6"/>
</svg>
